<?xml version="1.0" encoding="UTF-8" standalone="no"?>
<!-- Created with Inkscape (http://www.inkscape.org/) -->

<svg
   width="800"
   height="400"
   viewBox="0 0 211.66666 105.83333"
   version="1.1"
   id="svg1"
   inkscape:export-batch-path="/usr/share/icons/Adwaita/scalable/devices"
   inkscape:version="1.5-dev (unknown)"
   sodipodi:docname="installer_background.svg"
   xmlns:inkscape="http://www.inkscape.org/namespaces/inkscape"
   xmlns:sodipodi="http://sodipodi.sourceforge.net/DTD/sodipodi-0.dtd"
   xmlns="http://www.w3.org/2000/svg"
   xmlns:svg="http://www.w3.org/2000/svg">
  <sodipodi:namedview
     id="namedview1"
     pagecolor="#50505000"
     bordercolor="#ffffffff"
     borderopacity="1"
     inkscape:showpageshadow="0"
     inkscape:pageopacity="0"
     inkscape:pagecheckerboard="1"
     inkscape:deskcolor="#505050ff"
     inkscape:document-units="mm"
     showgrid="false"
     inkscape:zoom="0.83027497"
     inkscape:cx="392.0388"
     inkscape:cy="196.3205"
     inkscape:window-width="1366"
     inkscape:window-height="739"
     inkscape:window-maximized="1"
     inkscape:current-layer="layer1" />
  <defs
     id="defs1" />
  <g
     inkscape:label="Camada 1"
     inkscape:groupmode="layer"
     id="layer1">
    <rect
       style="fill:#333333;stroke:#ab0000;stroke-width:5.87999;stroke-linecap:round;stroke-linejoin:round"
       id="rect1"
       width="242.97929"
       height="121.26619"
       x="-12.02853"
       y="-5.6115699"
       ry="6.3032746" />
    <g
       id="g1"
       transform="matrix(0.6561,0,0,0.6561,1.5744378,0.81315603)"
       style="fill:#00ff00">
      <g
         aria-label="PW3270"
         id="text274"
         style="font-weight:bold;font-size:25.4px;line-height:1.25;font-family:'DejaVu Sans';-inkscape-font-specification:'DejaVu Sans Bold';fill:#00ff00;stroke-width:0.264583"
         transform="translate(-83.195434,-7.0936959)">
        <path
           d="m 84.795416,10.918196 h 7.925098 q 3.534668,0 5.419824,1.575097 1.897562,1.562696 1.897562,4.464844 0,2.914551 -1.897562,4.489648 -1.885156,1.562696 -5.419824,1.562696 h -3.150196 v 6.424414 h -4.774902 z m 4.774902,3.460253 v 5.171778 h 2.6417 q 1.389062,0 2.145605,-0.669727 0.756543,-0.682129 0.756543,-1.922363 0,-1.240234 -0.756543,-1.909961 -0.756543,-0.669727 -2.145605,-0.669727 z"
           style="font-size:25.4px;fill:#00ff00;stroke-width:0.264583"
           id="path336" />
        <path
           d="m 101.83624,10.918196 h 4.57646 l 3.19981,13.456542 3.175,-13.456542 h 4.60126 l 3.175,13.456542 3.19981,-13.456542 h 4.53926 l -4.36563,18.516699 h -5.50664 l -3.36103,-14.07666 -3.32383,14.07666 h -5.50664 z"
           style="font-size:25.4px;fill:#00ff00;stroke-width:0.264583"
           id="path338" />
        <path
           d="m 140.92842,19.451008 q 1.87276,0.483691 2.84014,1.686719 0.97979,1.190625 0.97979,3.038574 0,2.75332 -2.1084,4.191992 -2.1084,1.42627 -6.15157,1.42627 -1.42626,0 -2.86494,-0.235645 -1.42627,-0.223242 -2.82773,-0.682129 v -3.683496 q 1.33945,0.669727 2.6541,1.016992 1.32705,0.334864 2.60449,0.334864 1.89756,0 2.90215,-0.657325 1.01699,-0.657324 1.01699,-1.885156 0,-1.265039 -1.04179,-1.909961 -1.0294,-0.657324 -3.05098,-0.657324 h -1.90996 v -3.075781 h 2.00918 q 1.79834,0 2.67891,-0.558106 0.88056,-0.570508 0.88056,-1.723925 0,-1.066602 -0.85576,-1.649512 -0.85576,-0.58291 -2.41846,-0.58291 -1.15342,0 -2.33164,0.260449 -1.17822,0.260449 -2.34404,0.768945 v -3.497461 q 1.41387,-0.396875 2.80293,-0.595312 1.38906,-0.198438 2.72851,-0.198438 3.60909,0 5.39502,1.190625 1.79834,1.178223 1.79834,3.559473 0,1.624707 -0.85576,2.666504 -0.85576,1.029394 -2.53008,1.451074 z"
           style="font-size:25.4px;fill:#00ff00;stroke-width:0.264583"
           id="path340" />
        <path
           d="m 154.08731,25.925031 h 8.14834 v 3.509864 h -13.45654 v -3.509864 l 6.75927,-5.965527 q 0.90538,-0.818555 1.33946,-1.599902 0.43408,-0.781348 0.43408,-1.624707 0,-1.302246 -0.88057,-2.095996 -0.86816,-0.79375 -2.31923,-0.79375 -1.11622,0 -2.44327,0.483691 -1.32705,0.471289 -2.84013,1.413867 v -4.067968 q 1.6123,-0.533301 3.1874,-0.806153 1.5751,-0.285254 3.08818,-0.285254 3.32383,0 5.15938,1.463477 1.84795,1.463476 1.84795,4.080371 0,1.513086 -0.78135,2.827734 -0.78135,1.302246 -3.28662,3.497461 z"
           style="font-size:25.4px;fill:#00ff00;stroke-width:0.264583"
           id="path342" />
        <path
           d="m 166.14239,10.918196 h 13.95264 v 2.691308 l -7.21817,15.825391 h -4.65088 l 6.83369,-15.006836 h -8.91728 z"
           style="font-size:25.4px;fill:#00ff00;stroke-width:0.264583"
           id="path344" />
        <path
           d="m 193.79962,20.157942 q 0,-3.472657 -0.65733,-4.886524 -0.64492,-1.426269 -2.18281,-1.426269 -1.53789,0 -2.19522,1.426269 -0.65732,1.413867 -0.65732,4.886524 0,3.509863 0.65732,4.948535 0.65733,1.438672 2.19522,1.438672 1.52549,0 2.18281,-1.438672 0.65733,-1.438672 0.65733,-4.948535 z m 4.7749,0.03721 q 0,4.601269 -1.98438,7.106542 -1.98437,2.492872 -5.63066,2.492872 -3.65869,0 -5.64307,-2.492872 -1.98437,-2.505273 -1.98437,-7.106542 0,-4.613672 1.98437,-7.106543 1.98438,-2.505274 5.64307,-2.505274 3.64629,0 5.63066,2.505274 1.98438,2.492871 1.98438,7.106543 z"
           style="font-size:25.4px;fill:#00ff00;stroke-width:0.264583"
           id="path346" />
      </g>
      <g
         aria-label="GTK Based 3270 terminal emulator"
         id="text278"
         style="font-weight:bold;font-size:11.2889px;line-height:1.25;font-family:'DejaVu Sans';-inkscape-font-specification:'DejaVu Sans Bold';fill:#00ff00;stroke-width:0.264583"
         transform="translate(-83.068651,-7.5736703)">
        <path
           d="m 91.751756,40.489492 q -0.71658,0.385851 -1.488282,0.578776 -0.76619,0.192926 -1.58199,0.192926 -1.852085,0 -2.932468,-1.146529 -1.080383,-1.152041 -1.080383,-3.119882 0,-1.989889 1.096919,-3.130906 1.102432,-1.141016 3.020663,-1.141016 0.738629,0 1.416625,0.15434 0.677995,0.15434 1.278821,0.457509 v 1.703257 q -0.622874,-0.391363 -1.234724,-0.584289 -0.611849,-0.192925 -1.229211,-0.192925 -1.141017,0 -1.758379,0.711068 -0.617361,0.705556 -0.617361,2.022962 0,1.306382 0.595313,2.01745 0.595313,0.711069 1.692232,0.711069 0.297657,0 0.551216,-0.03858 0.259072,-0.0441 0.457509,-0.132292 v -1.598526 h -1.163065 v -1.422137 h 2.976565 z"
           style="font-style:normal;font-variant:normal;font-weight:bold;font-stretch:semi-condensed;font-size:11.2889px;font-family:'DejaVu Sans';-inkscape-font-specification:'DejaVu Sans Bold Semi-Condensed';fill:#00ff00;stroke-width:0.264583"
           id="path349" />
        <path
           d="m 92.347069,32.871689 h 6.824052 v 1.604038 h -2.45291 v 6.625614 h -1.912719 v -6.625614 h -2.458423 z"
           style="font-style:normal;font-variant:normal;font-weight:bold;font-stretch:semi-condensed;font-size:11.2889px;font-family:'DejaVu Sans';-inkscape-font-specification:'DejaVu Sans Bold Semi-Condensed';fill:#00ff00;stroke-width:0.264583"
           id="path351" />
        <path
           d="m 100.1578,32.871689 h 1.91272 v 3.004126 l 2.75056,-3.004126 h 2.2214 l -3.57188,3.897096 3.93569,4.332556 h -2.39228 l -2.94349,-3.241149 v 3.241149 h -1.91272 z"
           style="font-style:normal;font-variant:normal;font-weight:bold;font-stretch:semi-condensed;font-size:11.2889px;font-family:'DejaVu Sans';-inkscape-font-specification:'DejaVu Sans Bold Semi-Condensed';fill:#00ff00;stroke-width:0.264583"
           id="path353" />
        <path
           d="m 114.52799,36.057716 q 0.452,0 0.68351,-0.220486 0.23702,-0.220486 0.23702,-0.650435 0,-0.424436 -0.23702,-0.644922 -0.23151,-0.225999 -0.68351,-0.225999 h -1.05282 v 1.741842 z m 0.0661,3.59944 q 0.57878,0 0.86541,-0.270096 0.29214,-0.270096 0.29214,-0.815799 0,-0.53468 -0.29214,-0.799263 -0.28663,-0.270096 -0.86541,-0.270096 h -1.11897 v 2.155254 z m 1.77491,-2.960029 q 0.61737,0.198437 0.95361,0.733117 0.33624,0.534679 0.33624,1.311893 0,1.190627 -0.72761,1.774915 -0.72209,0.584289 -2.19935,0.584289 h -3.16949 v -8.229652 h 2.86632 q 1.54341,0 2.23243,0.518143 0.69453,0.518143 0.69453,1.659159 0,0.600826 -0.25356,1.025262 -0.24805,0.418924 -0.73312,0.622874 z"
           style="font-style:normal;font-variant:normal;font-weight:bold;font-stretch:semi-condensed;font-size:11.2889px;font-family:'DejaVu Sans';-inkscape-font-specification:'DejaVu Sans Bold Semi-Condensed';fill:#00ff00;stroke-width:0.264583"
           id="path355" />
        <path
           d="m 121.71585,38.323213 q -0.55673,0 -0.83785,0.209462 -0.28112,0.209462 -0.28112,0.617362 0,0.374827 0.226,0.589801 0.226,0.209462 0.62838,0.209462 0.50161,0 0.84337,-0.396875 0.34175,-0.402388 0.34175,-1.003213 v -0.225999 z m 2.71198,-0.744141 v 3.522269 h -1.79145 v -0.915018 q -0.35829,0.56224 -0.80478,0.821312 -0.44648,0.253559 -1.08589,0.253559 -0.86541,0 -1.4056,-0.556728 -0.53468,-0.56224 -0.53468,-1.45521 0,-1.085895 0.67248,-1.593014 0.67249,-0.507118 2.11116,-0.507118 h 1.04731 v -0.154341 q 0,-0.468533 -0.33624,-0.683507 -0.33073,-0.220487 -1.03078,-0.220487 -0.57326,0 -1.06384,0.12678 -0.49058,0.12678 -0.91502,0.380339 v -1.504819 q 0.57326,-0.154341 1.14653,-0.231511 0.57877,-0.08268 1.15204,-0.08268 1.50482,0 2.17179,0.661459 0.66697,0.655946 0.66697,2.138717 z"
           style="font-style:normal;font-variant:normal;font-weight:bold;font-stretch:semi-condensed;font-size:11.2889px;font-family:'DejaVu Sans';-inkscape-font-specification:'DejaVu Sans Bold Semi-Condensed';fill:#00ff00;stroke-width:0.264583"
           id="path357" />
        <path
           d="m 130.41403,35.120649 v 1.499307 q -0.56775,-0.264583 -1.10243,-0.396875 -0.52917,-0.132292 -0.9977,-0.132292 -0.50712,0 -0.75516,0.143316 -0.24254,0.137804 -0.24254,0.429949 0,0.237023 0.1819,0.363802 0.18742,0.12678 0.67249,0.187414 l 0.30868,0.04961 q 1.36701,0.192926 1.83554,0.633898 0.47405,0.440973 0.47405,1.383552 0,0.986676 -0.65595,1.482771 -0.65594,0.496094 -1.95681,0.496094 -0.55122,0 -1.14102,-0.09922 -0.58429,-0.09371 -1.20165,-0.286632 v -1.499307 q 0.52917,0.286632 1.0859,0.429948 0.56224,0.143316 1.1355,0.143316 0.51814,0 0.78273,-0.159852 0.26458,-0.159853 0.26458,-0.474046 0,-0.264584 -0.1819,-0.391363 -0.1819,-0.132292 -0.72209,-0.20395 l -0.3142,-0.0441 q -1.18511,-0.165365 -1.66467,-0.61185 -0.47404,-0.446485 -0.47404,-1.355991 0,-0.981164 0.60633,-1.45521 0.60634,-0.474045 1.8576,-0.474045 0.49058,0 1.03077,0.08268 0.5402,0.08268 1.17409,0.259071 z"
           style="font-style:normal;font-variant:normal;font-weight:bold;font-stretch:semi-condensed;font-size:11.2889px;font-family:'DejaVu Sans';-inkscape-font-specification:'DejaVu Sans Bold Semi-Condensed';fill:#00ff00;stroke-width:0.264583"
           id="path359" />
        <path
           d="m 137.66804,37.997996 v 0.56224 h -4.15066 q 0.0606,0.694532 0.44649,1.041798 0.39136,0.347266 1.08589,0.347266 0.56224,0 1.14653,-0.181901 0.5898,-0.187413 1.20716,-0.56224 v 1.521355 q -0.62838,0.264584 -1.26228,0.396876 -0.62839,0.137804 -1.25677,0.137804 -1.51033,0 -2.34818,-0.848873 -0.83234,-0.854384 -0.83234,-2.392276 0,-1.510332 0.82131,-2.375741 0.82131,-0.865408 2.25999,-0.865408 1.31189,0 2.09462,0.876433 0.78824,0.876433 0.78824,2.342667 z m -1.82453,-0.655947 q 0,-0.56224 -0.29765,-0.903994 -0.29215,-0.347266 -0.77171,-0.347266 -0.51263,0 -0.83784,0.325218 -0.31971,0.319705 -0.40239,0.926042 z"
           style="font-style:normal;font-variant:normal;font-weight:bold;font-stretch:semi-condensed;font-size:11.2889px;font-family:'DejaVu Sans';-inkscape-font-specification:'DejaVu Sans Bold Semi-Condensed';fill:#00ff00;stroke-width:0.264583"
           id="path361" />
        <path
           d="m 142.79434,35.831718 v -3.307295 h 1.78594 v 8.576918 h -1.78594 v -0.892969 q -0.36931,0.545703 -0.81028,0.799263 -0.44098,0.253559 -1.02526,0.253559 -1.02527,0 -1.68673,-0.903994 -0.65594,-0.909506 -0.65594,-2.337155 0,-1.427649 0.65594,-2.331643 0.66146,-0.909506 1.68673,-0.909506 0.57877,0 1.01974,0.259071 0.44649,0.253559 0.8158,0.793751 z m -1.17409,3.996315 q 0.57327,0 0.87093,-0.463022 0.30316,-0.463021 0.30316,-1.344966 0,-0.881946 -0.30316,-1.344967 -0.29766,-0.463021 -0.87093,-0.463021 -0.56224,0 -0.8654,0.463021 -0.29766,0.463021 -0.29766,1.344967 0,0.881945 0.29766,1.344966 0.30316,0.463022 0.8654,0.463022 z"
           style="font-style:normal;font-variant:normal;font-weight:bold;font-stretch:semi-condensed;font-size:11.2889px;font-family:'DejaVu Sans';-inkscape-font-specification:'DejaVu Sans Bold Semi-Condensed';fill:#00ff00;stroke-width:0.264583"
           id="path363" />
        <path
           d="m 153.69739,36.664054 q 0.74414,0.214974 1.13551,0.749653 0.39136,0.529167 0.39136,1.350479 0,1.223699 -0.84336,1.86311 -0.84336,0.633898 -2.46393,0.633898 -0.56776,0 -1.14102,-0.104731 -0.57327,-0.09922 -1.13551,-0.303169 v -1.637111 q 0.53468,0.297657 1.06385,0.451997 0.52917,0.148828 1.0418,0.148828 0.76068,0 1.16306,-0.292144 0.40239,-0.292144 0.40239,-0.837848 0,-0.56224 -0.41341,-0.848873 -0.41341,-0.292144 -1.2237,-0.292144 h -0.76068 v -1.367015 h 0.80478 q 0.71658,0 1.06936,-0.248047 0.35277,-0.25356 0.35277,-0.76619 0,-0.474046 -0.34175,-0.733117 -0.34175,-0.259072 -0.97014,-0.259072 -0.46302,0 -0.93155,0.115755 -0.46854,0.115756 -0.93707,0.341754 v -1.554428 q 0.56775,-0.176389 1.11897,-0.264584 0.55672,-0.08819 1.0914,-0.08819 1.44419,0 2.16077,0.529167 0.71658,0.523655 0.71658,1.581989 0,0.722093 -0.34175,1.185114 -0.34176,0.457509 -1.00873,0.644923 z"
           style="font-style:normal;font-variant:normal;font-weight:bold;font-stretch:semi-condensed;font-size:11.2889px;font-family:'DejaVu Sans';-inkscape-font-specification:'DejaVu Sans Bold Semi-Condensed';fill:#00ff00;stroke-width:0.264583"
           id="path365" />
        <path
           d="m 158.95599,39.5414 h 3.25769 v 1.559941 h -5.37987 V 39.5414 l 2.70096,-2.651348 q 0.3638,-0.363802 0.53468,-0.711068 0.17639,-0.347266 0.17639,-0.722093 0,-0.578777 -0.35278,-0.931555 -0.34727,-0.352778 -0.92604,-0.352778 -0.44649,0 -0.98117,0.214974 -0.52916,0.209462 -1.1355,0.628386 V 33.20793 q 0.64492,-0.237022 1.27331,-0.35829 0.6339,-0.126779 1.24023,-0.126779 1.32843,0 2.06155,0.650434 0.73863,0.650435 0.73863,1.8135 0,0.672484 -0.31419,1.256772 -0.30868,0.578777 -1.3119,1.554429 z"
           style="font-style:normal;font-variant:normal;font-weight:bold;font-stretch:semi-condensed;font-size:11.2889px;font-family:'DejaVu Sans';-inkscape-font-specification:'DejaVu Sans Bold Semi-Condensed';fill:#00ff00;stroke-width:0.264583"
           id="path367" />
        <path
           d="m 163.77361,32.871689 h 5.58382 v 1.196138 l -2.88837,7.033514 h -1.86311 l 2.73403,-6.669711 h -3.56637 z"
           style="font-style:normal;font-variant:normal;font-weight:bold;font-stretch:semi-condensed;font-size:11.2889px;font-family:'DejaVu Sans';-inkscape-font-specification:'DejaVu Sans Bold Semi-Condensed';fill:#00ff00;stroke-width:0.264583"
           id="path369" />
        <path
           d="m 174.83652,36.978247 q 0,-1.543405 -0.26458,-2.171791 -0.25908,-0.633898 -0.87093,-0.633898 -0.61736,0 -0.88194,0.633898 -0.25907,0.628386 -0.25907,2.171791 0,1.559941 0.25907,2.199351 0.26458,0.63941 0.88194,0.63941 0.60634,0 0.87093,-0.63941 0.26458,-0.63941 0.26458,-2.199351 z m 1.90721,0.01654 q 0,2.045011 -0.79376,3.158467 -0.79375,1.107944 -2.24896,1.107944 -1.46623,0 -2.25998,-1.107944 -0.79375,-1.113456 -0.79375,-3.158467 0,-2.050523 0.79375,-3.158467 0.79375,-1.113455 2.25998,-1.113455 1.45521,0 2.24896,1.113455 0.79376,1.107944 0.79376,3.158467 z"
           style="font-style:normal;font-variant:normal;font-weight:bold;font-stretch:semi-condensed;font-size:11.2889px;font-family:'DejaVu Sans';-inkscape-font-specification:'DejaVu Sans Bold Semi-Condensed';fill:#00ff00;stroke-width:0.264583"
           id="path371" />
        <path
           d="m 183.55676,33.174857 v 1.752867 h 1.83003 v 1.411112 h -1.83003 v 2.618276 q 0,0.429948 0.14883,0.584288 0.15434,0.148829 0.61184,0.148829 h 0.91502 v 1.411112 h -1.52135 q -1.05282,0 -1.4938,-0.48507 -0.44097,-0.490582 -0.44097,-1.659159 v -2.618276 h -0.88195 v -1.411112 h 0.88195 v -1.752867 z"
           style="font-style:normal;font-variant:normal;font-weight:bold;font-stretch:semi-condensed;font-size:11.2889px;font-family:'DejaVu Sans';-inkscape-font-specification:'DejaVu Sans Bold Semi-Condensed';fill:#00ff00;stroke-width:0.264583"
           id="path373" />
        <path
           d="m 192.01792,37.997996 v 0.56224 h -4.15066 q 0.0606,0.694532 0.44649,1.041798 0.39136,0.347266 1.08589,0.347266 0.56224,0 1.14653,-0.181901 0.5898,-0.187413 1.20716,-0.56224 v 1.521355 q -0.62838,0.264584 -1.26228,0.396876 -0.62839,0.137804 -1.25677,0.137804 -1.51033,0 -2.34818,-0.848873 -0.83234,-0.854384 -0.83234,-2.392276 0,-1.510332 0.82131,-2.375741 0.82132,-0.865408 2.25999,-0.865408 1.31189,0 2.09462,0.876433 0.78824,0.876433 0.78824,2.342667 z m -1.82453,-0.655947 q 0,-0.56224 -0.29765,-0.903994 -0.29215,-0.347266 -0.77171,-0.347266 -0.51263,0 -0.83784,0.325218 -0.31971,0.319705 -0.40239,0.926042 z"
           style="font-style:normal;font-variant:normal;font-weight:bold;font-stretch:semi-condensed;font-size:11.2889px;font-family:'DejaVu Sans';-inkscape-font-specification:'DejaVu Sans Bold Semi-Condensed';fill:#00ff00;stroke-width:0.264583"
           id="path375" />
        <path
           d="m 197.49149,36.608932 q -0.23702,-0.121267 -0.46853,-0.176389 -0.226,-0.06063 -0.46302,-0.06063 -0.68351,0 -1.05283,0.490582 -0.36931,0.48507 -0.36931,1.394577 v 2.844273 h -1.77492 v -6.173617 h 1.77492 v 1.014237 q 0.34175,-0.606337 0.78273,-0.881945 0.44648,-0.28112 1.06935,-0.28112 0.0882,0 0.19293,0.01102 0.10473,0.0055 0.30317,0.03307 z"
           style="font-style:normal;font-variant:normal;font-weight:bold;font-stretch:semi-condensed;font-size:11.2889px;font-family:'DejaVu Sans';-inkscape-font-specification:'DejaVu Sans Bold Semi-Condensed';fill:#00ff00;stroke-width:0.264583"
           id="path377" />
        <path
           d="m 203.52179,35.952985 q 0.33624,-0.573264 0.79926,-0.870921 0.46303,-0.303168 1.01975,-0.303168 0.95912,0 1.46073,0.655946 0.5016,0.655947 0.5016,1.907207 v 3.759292 h -1.78594 v -3.2191 q 0.006,-0.07166 0.006,-0.148829 0.006,-0.07717 0.006,-0.220486 0,-0.655947 -0.17639,-0.948091 -0.17088,-0.297657 -0.56224,-0.297657 -0.50161,0 -0.77722,0.463022 -0.2756,0.463021 -0.28663,1.339454 v 3.031687 h -1.78594 v -3.2191 q 0,-1.025262 -0.15985,-1.317406 -0.15985,-0.297657 -0.56775,-0.297657 -0.50712,0 -0.78824,0.468534 -0.27561,0.463021 -0.27561,1.32843 v 3.037199 h -1.78594 v -6.173617 h 1.78594 v 0.903994 q 0.32522,-0.523655 0.74965,-0.788239 0.42444,-0.264583 0.93707,-0.264583 0.57327,0 1.01424,0.30868 0.44648,0.308681 0.67248,0.865409 z"
           style="font-style:normal;font-variant:normal;font-weight:bold;font-stretch:semi-condensed;font-size:11.2889px;font-family:'DejaVu Sans';-inkscape-font-specification:'DejaVu Sans Bold Semi-Condensed';fill:#00ff00;stroke-width:0.264583"
           id="path379" />
        <path
           d="m 208.95678,34.927724 h 1.77491 v 6.173617 h -1.77491 z m 0,-2.403301 h 1.77491 v 1.60955 h -1.77491 z"
           style="font-style:normal;font-variant:normal;font-weight:bold;font-stretch:semi-condensed;font-size:11.2889px;font-family:'DejaVu Sans';-inkscape-font-specification:'DejaVu Sans Bold Semi-Condensed';fill:#00ff00;stroke-width:0.264583"
           id="path381" />
        <path
           d="m 218.01877,37.342049 v 3.759292 h -1.78594 v -0.611849 -2.265497 q 0,-0.799263 -0.0331,-1.102432 -0.0331,-0.303169 -0.11025,-0.446485 -0.10473,-0.192925 -0.28663,-0.297656 -0.17639,-0.110244 -0.40239,-0.110244 -0.55673,0 -0.87643,0.479558 -0.31419,0.474046 -0.31419,1.317406 v 3.037199 h -1.77492 v -6.173617 h 1.77492 v 0.903994 q 0.40238,-0.540192 0.85438,-0.793751 0.452,-0.259071 0.9977,-0.259071 0.95912,0 1.45521,0.655946 0.50161,0.655947 0.50161,1.907207 z"
           style="font-style:normal;font-variant:normal;font-weight:bold;font-stretch:semi-condensed;font-size:11.2889px;font-family:'DejaVu Sans';-inkscape-font-specification:'DejaVu Sans Bold Semi-Condensed';fill:#00ff00;stroke-width:0.264583"
           id="path383" />
        <path
           d="m 222.1584,38.323213 q -0.55673,0 -0.83785,0.209462 -0.28112,0.209462 -0.28112,0.617362 0,0.374827 0.226,0.589801 0.22599,0.209462 0.62838,0.209462 0.50161,0 0.84336,-0.396875 0.34176,-0.402388 0.34176,-1.003213 v -0.225999 z m 2.71198,-0.744141 v 3.522269 h -1.79145 v -0.915018 q -0.35829,0.56224 -0.80478,0.821312 -0.44648,0.253559 -1.08589,0.253559 -0.86541,0 -1.4056,-0.556728 -0.53468,-0.56224 -0.53468,-1.45521 0,-1.085895 0.67248,-1.593014 0.67248,-0.507118 2.11116,-0.507118 h 1.04731 v -0.154341 q 0,-0.468533 -0.33625,-0.683507 -0.33073,-0.220487 -1.03077,-0.220487 -0.57326,0 -1.06385,0.12678 -0.49058,0.12678 -0.91501,0.380339 v -1.504819 q 0.57326,-0.154341 1.14652,-0.231511 0.57878,-0.08268 1.15205,-0.08268 1.50481,0 2.17179,0.661459 0.66697,0.655946 0.66697,2.138717 z"
           style="font-style:normal;font-variant:normal;font-weight:bold;font-stretch:semi-condensed;font-size:11.2889px;font-family:'DejaVu Sans';-inkscape-font-specification:'DejaVu Sans Bold Semi-Condensed';fill:#00ff00;stroke-width:0.264583"
           id="path385" />
        <path
           d="m 226.51852,32.524423 h 1.77492 v 8.576918 h -1.77492 z"
           style="font-style:normal;font-variant:normal;font-weight:bold;font-stretch:semi-condensed;font-size:11.2889px;font-family:'DejaVu Sans';-inkscape-font-specification:'DejaVu Sans Bold Semi-Condensed';fill:#00ff00;stroke-width:0.264583"
           id="path387" />
        <path
           d="m 239.07521,37.997996 v 0.56224 h -4.15065 q 0.0606,0.694532 0.44648,1.041798 0.39137,0.347266 1.0859,0.347266 0.56224,0 1.14653,-0.181901 0.5898,-0.187413 1.20716,-0.56224 v 1.521355 q -0.62839,0.264584 -1.26228,0.396876 -0.62839,0.137804 -1.25678,0.137804 -1.51033,0 -2.34818,-0.848873 -0.83233,-0.854384 -0.83233,-2.392276 0,-1.510332 0.82131,-2.375741 0.82131,-0.865408 2.25999,-0.865408 1.31189,0 2.09462,0.876433 0.78823,0.876433 0.78823,2.342667 z m -1.82452,-0.655947 q 0,-0.56224 -0.29766,-0.903994 -0.29214,-0.347266 -0.7717,-0.347266 -0.51263,0 -0.83785,0.325218 -0.3197,0.319705 -0.40238,0.926042 z"
           style="font-style:normal;font-variant:normal;font-weight:bold;font-stretch:semi-condensed;font-size:11.2889px;font-family:'DejaVu Sans';-inkscape-font-specification:'DejaVu Sans Bold Semi-Condensed';fill:#00ff00;stroke-width:0.264583"
           id="path389" />
        <path
           d="m 245.56854,35.952985 q 0.33624,-0.573264 0.79926,-0.870921 0.46302,-0.303168 1.01975,-0.303168 0.95911,0 1.46072,0.655946 0.50161,0.655947 0.50161,1.907207 v 3.759292 h -1.78594 v -3.2191 q 0.006,-0.07166 0.006,-0.148829 0.006,-0.07717 0.006,-0.220486 0,-0.655947 -0.17639,-0.948091 -0.17087,-0.297657 -0.56224,-0.297657 -0.5016,0 -0.77721,0.463022 -0.27561,0.463021 -0.28663,1.339454 v 3.031687 h -1.78594 v -3.2191 q 0,-1.025262 -0.15986,-1.317406 -0.15985,-0.297657 -0.56775,-0.297657 -0.50712,0 -0.78824,0.468534 -0.2756,0.463021 -0.2756,1.32843 v 3.037199 h -1.78594 v -6.173617 h 1.78594 v 0.903994 q 0.32521,-0.523655 0.74965,-0.788239 0.42444,-0.264583 0.93707,-0.264583 0.57326,0 1.01423,0.30868 0.44649,0.308681 0.67249,0.865409 z"
           style="font-style:normal;font-variant:normal;font-weight:bold;font-stretch:semi-condensed;font-size:11.2889px;font-family:'DejaVu Sans';-inkscape-font-specification:'DejaVu Sans Bold Semi-Condensed';fill:#00ff00;stroke-width:0.264583"
           id="path391" />
        <path
           d="m 250.94289,38.69804 v -3.770316 h 1.78594 v 0.617362 q 0,0.501606 -0.006,1.262284 -0.006,0.755166 -0.006,1.008725 0,0.744141 0.0331,1.074871 0.0386,0.325217 0.12127,0.474045 0.11024,0.192926 0.28663,0.297657 0.17639,0.104731 0.40239,0.104731 0.55672,0 0.87092,-0.474046 0.3197,-0.474045 0.3197,-1.317406 v -3.048223 h 1.77492 v 6.173617 h -1.77492 v -0.892969 q -0.40239,0.540191 -0.85438,0.799263 -0.44649,0.253559 -0.98668,0.253559 -0.95911,0 -1.46623,-0.655947 -0.50161,-0.655947 -0.50161,-1.907207 z"
           style="font-style:normal;font-variant:normal;font-weight:bold;font-stretch:semi-condensed;font-size:11.2889px;font-family:'DejaVu Sans';-inkscape-font-specification:'DejaVu Sans Bold Semi-Condensed';fill:#00ff00;stroke-width:0.264583"
           id="path393" />
        <path
           d="m 258.23547,32.524423 h 1.77492 v 8.576918 h -1.77492 z"
           style="font-style:normal;font-variant:normal;font-weight:bold;font-stretch:semi-condensed;font-size:11.2889px;font-family:'DejaVu Sans';-inkscape-font-specification:'DejaVu Sans Bold Semi-Condensed';fill:#00ff00;stroke-width:0.264583"
           id="path395" />
        <path
           d="m 264.20515,38.323213 q -0.55673,0 -0.83785,0.209462 -0.28112,0.209462 -0.28112,0.617362 0,0.374827 0.226,0.589801 0.226,0.209462 0.62838,0.209462 0.50161,0 0.84336,-0.396875 0.34176,-0.402388 0.34176,-1.003213 v -0.225999 z m 2.71198,-0.744141 v 3.522269 h -1.79145 v -0.915018 q -0.35829,0.56224 -0.80478,0.821312 -0.44648,0.253559 -1.08589,0.253559 -0.86541,0 -1.4056,-0.556728 -0.53468,-0.56224 -0.53468,-1.45521 0,-1.085895 0.67248,-1.593014 0.67249,-0.507118 2.11116,-0.507118 h 1.04731 v -0.154341 q 0,-0.468533 -0.33624,-0.683507 -0.33073,-0.220487 -1.03078,-0.220487 -0.57326,0 -1.06384,0.12678 -0.49059,0.12678 -0.91502,0.380339 v -1.504819 q 0.57326,-0.154341 1.14653,-0.231511 0.57877,-0.08268 1.15204,-0.08268 1.50482,0 2.17179,0.661459 0.66697,0.655946 0.66697,2.138717 z"
           style="font-style:normal;font-variant:normal;font-weight:bold;font-stretch:semi-condensed;font-size:11.2889px;font-family:'DejaVu Sans';-inkscape-font-specification:'DejaVu Sans Bold Semi-Condensed';fill:#00ff00;stroke-width:0.264583"
           id="path397" />
        <path
           d="m 270.50554,33.174857 v 1.752867 h 1.83004 v 1.411112 h -1.83004 v 2.618276 q 0,0.429948 0.14883,0.584288 0.15434,0.148829 0.61185,0.148829 h 0.91502 v 1.411112 h -1.52136 q -1.05282,0 -1.49379,-0.48507 -0.44098,-0.490582 -0.44098,-1.659159 v -2.618276 h -0.88194 v -1.411112 h 0.88194 v -1.752867 z"
           style="font-style:normal;font-variant:normal;font-weight:bold;font-stretch:semi-condensed;font-size:11.2889px;font-family:'DejaVu Sans';-inkscape-font-specification:'DejaVu Sans Bold Semi-Condensed';fill:#00ff00;stroke-width:0.264583"
           id="path399" />
        <path
           d="m 276.0618,36.190008 q -0.5898,0 -0.89848,0.474046 -0.30868,0.468533 -0.30868,1.355991 0,0.887457 0.30868,1.361503 0.30868,0.468533 0.89848,0.468533 0.58429,0 0.88746,-0.468533 0.30868,-0.474046 0.30868,-1.361503 0,-0.887458 -0.30868,-1.355991 -0.30317,-0.474046 -0.88746,-0.474046 z m 0,-1.411112 q 1.43867,0 2.24345,0.859896 0.80477,0.859897 0.80477,2.381253 0,1.521355 -0.80477,2.381252 -0.80478,0.859897 -2.24345,0.859897 -1.43316,0 -2.24896,-0.859897 -0.81029,-0.859897 -0.81029,-2.381252 0,-1.521356 0.81029,-2.381253 0.8158,-0.859896 2.24896,-0.859896 z"
           style="font-style:normal;font-variant:normal;font-weight:bold;font-stretch:semi-condensed;font-size:11.2889px;font-family:'DejaVu Sans';-inkscape-font-specification:'DejaVu Sans Bold Semi-Condensed';fill:#00ff00;stroke-width:0.264583"
           id="path401" />
        <path
           d="m 284.52848,36.608932 q -0.23703,-0.121267 -0.46854,-0.176389 -0.22599,-0.06063 -0.46302,-0.06063 -0.6835,0 -1.05282,0.490582 -0.36931,0.48507 -0.36931,1.394577 v 2.844273 h -1.77492 v -6.173617 h 1.77492 v 1.014237 q 0.34175,-0.606337 0.78272,-0.881945 0.44649,-0.28112 1.06936,-0.28112 0.0882,0 0.19293,0.01102 0.10473,0.0055 0.30317,0.03307 z"
           style="font-style:normal;font-variant:normal;font-weight:bold;font-stretch:semi-condensed;font-size:11.2889px;font-family:'DejaVu Sans';-inkscape-font-specification:'DejaVu Sans Bold Semi-Condensed';fill:#00ff00;stroke-width:0.264583"
           id="path403" />
      </g>
    </g>
    <g
       transform="matrix(0,0.00253259,0.00253259,0,89.562694,39.479013)"
       fill="#000000"
       stroke="none"
       id="g15"
       style="fill:#ffffff">
      <path
         d="M 2663,9942 21,7105 l 52,-7 c 29,-3 757,-6 1619,-7 l 1568,-1 2,-182 3,-183 2058,-3 2057,-2 v 185 185 h 1605 c 883,0 1605,3 1605,6 0,8 79,-77 -1345,1454 -688,740 -1824,1962 -2524,2715 -1182,1271 -1411,1516 -1415,1514 0,0 -1190,-1277 -2643,-2837 z"
         id="path1"
         style="fill:#ffffff" />
      <path
         d="m 4298,6653 c 569,-2 1496,-2 2060,0 565,1 100,2 -1033,2 -1133,0 -1595,-1 -1027,-2 z"
         id="path2"
         style="fill:#ffffff" />
      <path
         d="m 3265,6607 c -3,-7 -4,-131 -3,-277 l 3,-265 2058,-3 2057,-2 v 280 280 H 5325 c -1649,0 -2057,-3 -2060,-13 z"
         id="path3"
         style="fill:#ffffff" />
      <path
         d="m 4333,5973 c 560,-2 1474,-2 2030,0 557,1 99,2 -1018,2 -1116,0 -1572,-1 -1012,-2 z"
         id="path4"
         style="fill:#ffffff" />
      <path
         d="m 3267,5903 c -4,-3 -7,-116 -7,-250 v -243 h 2060 2060 l -2,248 -3,247 -2051,3 c -1128,1 -2054,-1 -2057,-5 z"
         id="path5"
         style="fill:#ffffff" />
      <path
         d="m 3295,5360 c 47,-12 4075,-12 4075,0 0,7 -690,10 -2052,9 -1129,-1 -2039,-5 -2023,-9 z"
         id="path6"
         style="fill:#ffffff" />
      <path
         d="m 3267,5243 c -4,-3 -7,-111 -7,-238 v -232 l 68,-6 c 86,-9 3999,-9 4030,-1 l 22,6 -2,237 -3,236 -2051,3 c -1128,1 -2054,-1 -2057,-5 z"
         id="path7"
         style="fill:#ffffff" />
      <path
         d="m 3267,4613 c -4,-3 -7,-102 -7,-219 v -213 l 53,-6 c 28,-3 954,-5 2057,-3 l 2005,3 v 220 220 l -2051,3 c -1128,1 -2054,-1 -2057,-5 z"
         id="path8"
         style="fill:#ffffff" />
      <path
         d="m 3267,3993 c -4,-3 -7,-93 -7,-199 v -192 l 63,-7 c 34,-3 960,-5 2057,-3 l 1995,3 v 200 200 l -2051,3 c -1128,1 -2054,-1 -2057,-5 z"
         id="path9"
         style="fill:#ffffff" />
      <path
         d="m 3264,3357 c -2,-7 -3,-89 -2,-182 l 3,-170 h 2055 2055 v 180 180 l -2053,3 c -1668,2 -2054,0 -2058,-11 z"
         id="path10"
         style="fill:#ffffff" />
      <path
         d="m 3264,2737 c -2,-7 -3,-82 -2,-167 l 3,-155 2058,-3 2057,-2 -2,167 -3,168 -2053,2 c -1668,2 -2054,1 -2058,-10 z"
         id="path11"
         style="fill:#ffffff" />
      <path
         d="m 3264,2107 c -2,-7 -3,-71 -2,-143 l 3,-129 2058,-3 2058,-2 -3,142 -3,143 -2053,3 c -1681,2 -2054,0 -2058,-11 z"
         id="path12"
         style="fill:#ffffff" />
      <path
         d="m 3262,1368 3,-123 2058,-3 2057,-2 v 125 125 H 5320 3259 Z"
         id="path13"
         style="fill:#ffffff" />
      <path
         d="m 3264,857 c -3,-8 -3,-56 -2,-108 l 3,-94 2058,-3 2058,-2 -3,107 -3,108 -2053,3 c -1698,2 -2053,0 -2058,-11 z"
         id="path14"
         style="fill:#ffffff" />
      <path
         d="m 3262,158 3,-83 2058,-3 2057,-2 v 85 85 H 5320 3259 Z"
         id="path15"
         style="fill:#ffffff" />
    </g>
  </g>
</svg>
