<?xml version="1.0" encoding="UTF-8" standalone="no"?>
<svg
   xmlns:dc="http://purl.org/dc/elements/1.1/"
   xmlns:cc="http://creativecommons.org/ns#"
   xmlns:rdf="http://www.w3.org/1999/02/22-rdf-syntax-ns#"
   xmlns:svg="http://www.w3.org/2000/svg"
   xmlns="http://www.w3.org/2000/svg"
   xmlns:sodipodi="http://sodipodi.sourceforge.net/DTD/sodipodi-0.dtd"
   xmlns:inkscape="http://www.inkscape.org/namespaces/inkscape"
   version="1.1"
   id="svg851"
   width="256"
   height="256"
   viewBox="0 0 256 256"
   sodipodi:docname="gtk-connect-symbolic.svg"
   inkscape:version="1.0.1 (3bc2e813f5, 2020-09-07)">
  <metadata
     id="metadata857">
    <rdf:RDF>
      <cc:Work
         rdf:about="">
        <dc:format>image/svg+xml</dc:format>
        <dc:type
           rdf:resource="http://purl.org/dc/dcmitype/StillImage" />
        <dc:title></dc:title>
      </cc:Work>
    </rdf:RDF>
  </metadata>
  <defs
     id="defs855">
    <marker
       style="overflow:visible"
       id="Arrow1Lstart"
       refX="0.0"
       refY="0.0"
       orient="auto"
       inkscape:stockid="Arrow1Lstart"
       inkscape:isstock="true">
      <path
         transform="scale(0.8) translate(12.5,0)"
         style="fill-rule:evenodd;stroke:#000000;stroke-width:1.0pt"
         d="M 0.0,0.0 L 5.0,-5.0 L -12.5,0.0 L 5.0,5.0 L 0.0,0.0 z "
         id="path1007" />
    </marker>
  </defs>
  <sodipodi:namedview
     pagecolor="#ffffff"
     bordercolor="#666666"
     borderopacity="1"
     objecttolerance="10"
     gridtolerance="10"
     guidetolerance="10"
     inkscape:pageopacity="0"
     inkscape:pageshadow="2"
     inkscape:window-width="1366"
     inkscape:window-height="713"
     id="namedview853"
     showgrid="false"
     inkscape:zoom="1.3921165"
     inkscape:cx="99.069109"
     inkscape:cy="184.6652"
     inkscape:window-x="0"
     inkscape:window-y="25"
     inkscape:window-maximized="1"
     inkscape:current-layer="g859"
     inkscape:document-rotation="0" />
  <g
     inkscape:groupmode="layer"
     inkscape:label="Image"
     id="g859">
    <g
       id="g923"
       transform="matrix(3.7795276,0,0,3.7795276,-118.40429,8.6123775)">
      <path
         id="rect883-3"
         style="opacity:1;fill:#000000;fill-opacity:1;stroke:none;stroke-width:0.858311;stroke-linecap:round;stroke-linejoin:round;stroke-miterlimit:4;stroke-dasharray:none;stroke-opacity:1"
         d="m 92.554935,8.5779117 c -1.798383,-0.1481724 -3.650627,1.2722474 -3.264892,3.1739583 0,13.525103 0,27.050206 0,40.575309 -0.01033,1.949711 3.647396,3.05186 4.472053,1.706431 0,-15.097123 0,-30.194245 0,-45.2913683 -0.392532,-0.1087998 -0.799794,-0.1644515 -1.207161,-0.16433 z m 4.073796,-9.29504033 c -2.07079,-0.0714654 -3.476923,2.03267503 -3.165182,3.95774393 0.01085,19.2643707 -0.0217,38.5298257 0.01628,57.7935187 0.126716,2.110405 2.653929,3.534377 4.522972,2.533701 0,-21.322901 0,-42.645803 0,-63.96870376 -0.426607,-0.20655366 -0.89981,-0.31703838 -1.374071,-0.31625987 z" />
      <path
         id="path930-7"
         style="opacity:1;fill:#000000;fill-opacity:1;stroke:none;stroke-width:1.11486;stroke-linecap:round;stroke-linejoin:round;stroke-miterlimit:4;stroke-dasharray:none;stroke-opacity:1"
         d="M 82.489067,12.90927 A 15.467497,18.678622 0 0 0 68.038271,24.929209 H 52.736878 c -1.91384,0 -3.45457,1.540729 -3.45457,3.454569 v 6.097817 c 0,1.913843 1.54073,3.454572 3.45457,3.454572 h 15.205791 a 15.467497,18.678622 0 0 0 14.546398,12.330512 15.467497,18.678622 0 0 0 7.232118,-2.168342 V 15.077612 A 15.467497,18.678622 0 0 0 82.489067,12.90927 Z" />
    </g>
  </g>
</svg>
