<?xml version="1.0" encoding="UTF-8" standalone="no"?>
<svg
   xmlns:dc="http://purl.org/dc/elements/1.1/"
   xmlns:cc="http://creativecommons.org/ns#"
   xmlns:rdf="http://www.w3.org/1999/02/22-rdf-syntax-ns#"
   xmlns:svg="http://www.w3.org/2000/svg"
   xmlns="http://www.w3.org/2000/svg"
   xmlns:sodipodi="http://sodipodi.sourceforge.net/DTD/sodipodi-0.dtd"
   xmlns:inkscape="http://www.inkscape.org/namespaces/inkscape"
   version="1.1"
   id="svg851"
   width="256"
   height="256"
   viewBox="0 0 256 256"
   sodipodi:docname="connect.svg"
   inkscape:version="0.92.2 5c3e80d, 2017-08-06">
  <metadata
     id="metadata857">
    <rdf:RDF>
      <cc:Work
         rdf:about="">
        <dc:format>image/svg+xml</dc:format>
        <dc:type
           rdf:resource="http://purl.org/dc/dcmitype/StillImage" />
        <dc:title />
      </cc:Work>
    </rdf:RDF>
  </metadata>
  <defs
     id="defs855">
    <marker
       style="overflow:visible"
       id="Arrow1Lstart"
       refX="0.0"
       refY="0.0"
       orient="auto"
       inkscape:stockid="Arrow1Lstart"
       inkscape:isstock="true">
      <path
         transform="scale(0.8) translate(12.5,0)"
         style="fill-rule:evenodd;stroke:#000000;stroke-width:1.0pt"
         d="M 0.0,0.0 L 5.0,-5.0 L -12.5,0.0 L 5.0,5.0 L 0.0,0.0 z "
         id="path1007" />
    </marker>
  </defs>
  <sodipodi:namedview
     pagecolor="#ffffff"
     bordercolor="#666666"
     borderopacity="1"
     objecttolerance="10"
     gridtolerance="10"
     guidetolerance="10"
     inkscape:pageopacity="0"
     inkscape:pageshadow="2"
     inkscape:window-width="1366"
     inkscape:window-height="715"
     id="namedview853"
     showgrid="false"
     inkscape:zoom="1.3921165"
     inkscape:cx="100.50577"
     inkscape:cy="124.32542"
     inkscape:window-x="0"
     inkscape:window-y="27"
     inkscape:window-maximized="1"
     inkscape:current-layer="g859"
     inkscape:document-rotation="0" />
  <g
     inkscape:groupmode="layer"
     inkscape:label="Image"
     id="g859">
    <g
       id="g1679"
       transform="matrix(3.7795276,0,0,3.7795276,-269.90043,-434.44481)">
      <g
         transform="translate(119.0625,2.4857829)"
         id="g1673">
        <path
           d="m 12.89212,122.87636 c -1.798383,-0.14817 -3.6506272,1.27225 -3.2648922,3.17396 v 40.57531 c -0.01033,1.94971 3.6473962,3.05186 4.4720532,1.70643 v -45.29137 c -0.392532,-0.1088 -0.799794,-0.16445 -1.207161,-0.16433 z"
           style="opacity:1;fill:#ececea;fill-opacity:1;stroke:#babdb7;stroke-width:0.858311;stroke-linecap:round;stroke-linejoin:round;stroke-miterlimit:4;stroke-dasharray:none;stroke-opacity:0.89803922"
           id="rect883-3-3"
           inkscape:connector-curvature="0"
           sodipodi:nodetypes="cccccc" />
        <path
           d="m 17.220429,113.58779 c -2.07079,-0.0715 -3.476923,2.03268 -3.165182,3.95775 0.01085,19.26437 -0.0217,38.52982 0.01628,57.79352 0.126716,2.1104 2.653929,3.53437 4.522972,2.5337 v -63.96871 c -0.426607,-0.20655 -0.89981,-0.31704 -1.37407,-0.31626 z"
           style="opacity:1;fill:#b8bbb4;fill-opacity:1;stroke:#888b85;stroke-width:0.85831106;stroke-linecap:round;stroke-linejoin:round;stroke-miterlimit:4;stroke-dasharray:none;stroke-opacity:0.72156863"
           id="rect883-3-3-6"
           inkscape:connector-curvature="0"
           sodipodi:nodetypes="cccccc" />
      </g>
      <path
         inkscape:connector-curvature="0"
         id="path930-7-1"
         style="opacity:1;fill:#e2e2df;fill-opacity:1;stroke:#595b57;stroke-width:1.11486006;stroke-linecap:round;stroke-linejoin:round;stroke-miterlimit:4;stroke-dasharray:none;stroke-opacity:0.76078431"
         d="m 120.92845,129.70283 a 15.467497,18.678622 0 0 0 -14.4508,12.01994 H 91.176261 c -1.91384,0 -3.45457,1.54073 -3.45457,3.45457 v 6.09781 c 0,1.91385 1.54073,3.45458 3.45457,3.45458 h 15.205789 a 15.467497,18.678622 0 0 0 14.5464,12.33051 15.467497,18.678622 0 0 0 7.23211,-2.16834 v -33.02073 a 15.467497,18.678622 0 0 0 -7.23211,-2.16834 z" />
    </g>
  </g>
</svg>
