<?xml version="1.0" encoding="UTF-8" standalone="no"?>
<!-- Created with Sodipodi ("http://www.sodipodi.com/") -->

<svg
   xmlns:a="http://ns.adobe.com/AdobeSVGViewerExtensions/3.0/"
   xmlns:dc="http://purl.org/dc/elements/1.1/"
   xmlns:cc="http://creativecommons.org/ns#"
   xmlns:rdf="http://www.w3.org/1999/02/22-rdf-syntax-ns#"
   xmlns:svg="http://www.w3.org/2000/svg"
   xmlns="http://www.w3.org/2000/svg"
   xmlns:sodipodi="http://sodipodi.sourceforge.net/DTD/sodipodi-0.dtd"
   xmlns:inkscape="http://www.inkscape.org/namespaces/inkscape"
   width="48pt"
   height="48pt"
   viewBox="0 0 256 256"
   overflow="visible"
   enable-background="new 0 0 256 256"
   xml:space="preserve"
   id="svg548"
   sodipodi:version="0.32"
   sodipodi:docname="gtk-quit-symbolic.svg"
   version="1.1"
   inkscape:version="0.92.2 5c3e80d, 2017-08-06"><metadata
     id="metadata41"><rdf:RDF><cc:Work
         rdf:about=""><dc:format>image/svg+xml</dc:format><dc:type
           rdf:resource="http://purl.org/dc/dcmitype/StillImage" /></cc:Work></rdf:RDF></metadata><defs
     id="defs600"><radialGradient
       gradientUnits="userSpaceOnUse"
       fy="55.0098"
       fx="50.5859"
       r="259.5079"
       cy="55.0098"
       cx="50.5859"
       id="XMLID_3_"><stop
         id="stop578"
         style="stop-color:#FF9999"
         offset="0.0056" /><stop
         id="stop579"
         style="stop-color:#FF0000"
         offset="0.5843" /><stop
         id="stop580"
         style="stop-color:#990000"
         offset="1" /><a:midPointStop
         id="midPointStop581"
         style="stop-color:#FF9999"
         offset="0.0056" /><a:midPointStop
         id="midPointStop582"
         style="stop-color:#FF9999"
         offset="0.5" /><a:midPointStop
         id="midPointStop583"
         style="stop-color:#FF0000"
         offset="0.5843" /><a:midPointStop
         id="midPointStop584"
         style="stop-color:#FF0000"
         offset="0.5" /><a:midPointStop
         id="midPointStop585"
         style="stop-color:#990000"
         offset="1" /></radialGradient><linearGradient
       y2="101.9984"
       x2="127.5151"
       y1="12.998"
       x1="127.5151"
       gradientUnits="userSpaceOnUse"
       id="XMLID_4_"><stop
         id="stop589"
         style="stop-color:#FFFFFF"
         offset="0.0056" /><stop
         id="stop590"
         style="stop-color:#FF5656"
         offset="1" /><a:midPointStop
         id="midPointStop591"
         style="stop-color:#FFFFFF"
         offset="0.0056" /><a:midPointStop
         id="midPointStop592"
         style="stop-color:#FFFFFF"
         offset="0.5" /><a:midPointStop
         id="midPointStop593"
         style="stop-color:#FF5656"
         offset="1" /></linearGradient></defs><sodipodi:namedview
     id="base"
     showgrid="false"
     inkscape:zoom="3.6875"
     inkscape:cx="33.084746"
     inkscape:cy="40.677966"
     inkscape:window-width="1366"
     inkscape:window-height="715"
     inkscape:window-x="0"
     inkscape:window-y="27"
     inkscape:window-maximized="1"
     inkscape:current-layer="svg548" /><g
     id="Layer_1"
     stroke="#000000"><path
       fill="none"
       stroke="none"
       d="M256,256H0V0h256V256z"
       id="path550" /></g><g
     style="display:none;stroke:#000000"
     id="g553"
     display="none"><path
       style="display:inline;stroke:none"
       inkscape:connector-curvature="0"
       id="path554"
       d="m 133.429,53.076 8.095,6.894 83.157,70.817 -96.107,81.847 c 0,0 0,-30.299 0,-34.207 -4.186,-1.066 -77.223,-19.684 -77.223,-19.684 v -56.355 c 0,0 73.011,-18.221 77.223,-19.272 0,-3.926 0,-34.175 0,-34.175 z"
       display="inline" /><path
       style="display:inline;fill:#0066cc;stroke:none"
       inkscape:connector-curvature="0"
       id="path555"
       d="M 222.918,123.788 121.725,37.611 v 4.33 c 0,0 0,29.768 0,32.613 -2.913,0.727 -77.221,19.272 -77.221,19.272 v 59.473 c 0,0 74.325,18.943 77.221,19.682 0,2.832 0,36.984 0,36.984 z"
       display="inline" /><linearGradient
       y2="123.7881"
       x2="207.7148"
       y1="123.7881"
       x1="54.360401"
       gradientUnits="userSpaceOnUse"
       id="XMLID_1_"><stop
         id="stop557"
         style="stop-color:#3399FF"
         offset="0" /><stop
         id="stop558"
         style="stop-color:#99CCFF"
         offset="1" /><a:midPointStop
         id="midPointStop559"
         style="stop-color:#3399FF"
         offset="0" /><a:midPointStop
         id="midPointStop560"
         style="stop-color:#3399FF"
         offset="0.5" /><a:midPointStop
         id="midPointStop561"
         style="stop-color:#99CCFF"
         offset="1" /></linearGradient><path
       inkscape:connector-curvature="0"
       style="display:inline;"
       id="path562"
       d="m 54.36,101.525 77.223,-19.273 v -23.3 l 38.065,32.418 38.066,32.417 -38.066,32.417 -38.065,32.418 V 165.32 L 54.36,145.639 Z"
       display="inline" /><linearGradient
       y2="103.7712"
       x2="158.657"
       y1="88.676804"
       x1="173.75101"
       gradientUnits="userSpaceOnUse"
       id="XMLID_2_"><stop
         id="stop564"
         style="stop-color:#FFFFFF"
         offset="0" /><stop
         id="stop565"
         style="stop-color:#FBFDFF"
         offset="0.2111" /><stop
         id="stop566"
         style="stop-color:#F0F8FF"
         offset="0.4061" /><stop
         id="stop567"
         style="stop-color:#DDEEFF"
         offset="0.5949" /><stop
         id="stop568"
         style="stop-color:#C3E1FF"
         offset="0.7797" /><stop
         id="stop569"
         style="stop-color:#A2D0FF"
         offset="0.9601" /><stop
         id="stop570"
         style="stop-color:#99CCFF"
         offset="1" /><a:midPointStop
         id="midPointStop571"
         style="stop-color:#FFFFFF"
         offset="0" /><a:midPointStop
         id="midPointStop572"
         style="stop-color:#FFFFFF"
         offset="0.7232" /><a:midPointStop
         id="midPointStop573"
         style="stop-color:#99CCFF"
         offset="1" /></linearGradient><path
       inkscape:connector-curvature="0"
       style="display:inline;opacity:0.7;stroke:none"
       id="path574"
       d="m 133.546,69.178 c 0,-1.388 0,-2.702 0,-3.847 7.393,6.296 33.21,28.283 33.21,28.283 0,0 30.868,26.287 35.433,30.174 -1.435,1.222 -8.027,6.836 -16.618,14.152 -10.226,-30.176 -28.803,-54.676 -52.025,-68.762 z"
       display="inline" /></g><g
     id="g82"
     transform="translate(-0.807,3.423)"><path
       d="m 161.307,41.489 v 33.488 c 16.736,10.741 27.857,29.5 27.857,50.821 0,33.281 -27.076,60.356 -60.357,60.356 -33.281,0 -60.357,-27.075 -60.357,-60.356 0,-21.32 11.122,-40.08 27.857,-50.821 V 41.489 C 62.495,54.568 38.45,87.426 38.45,125.798 c 0,49.823 40.534,90.356 90.357,90.356 49.823,0 90.357,-40.533 90.357,-90.356 0,-38.372 -24.045,-71.23 -57.857,-84.309 z"
       id="path595"
       inkscape:connector-curvature="0"
       style="stroke:none" /><path
       d="m 112.307,33 c -1.657,0 -3,1.246 -3,2.783 v 122.435 c 0,1.537 1.343,2.782 3,2.782 h 33 c 1.657,0 3,-1.245 3,-2.782 V 35.783 c 0,-1.537 -1.343,-2.783 -3,-2.783 z"
       id="path597"
       inkscape:connector-curvature="0"
       style="stroke:none" /></g></svg>
