<?xml version="1.0" encoding="UTF-8" standalone="no"?>
<!-- Created with Inkscape (http://www.inkscape.org/) -->

<svg
   xmlns:dc="http://purl.org/dc/elements/1.1/"
   xmlns:cc="http://creativecommons.org/ns#"
   xmlns:rdf="http://www.w3.org/1999/02/22-rdf-syntax-ns#"
   xmlns:svg="http://www.w3.org/2000/svg"
   xmlns="http://www.w3.org/2000/svg"
   xmlns:xlink="http://www.w3.org/1999/xlink"
   xmlns:sodipodi="http://sodipodi.sourceforge.net/DTD/sodipodi-0.dtd"
   xmlns:inkscape="http://www.inkscape.org/namespaces/inkscape"
   width="300"
   height="154"
   id="svg2685"
   sodipodi:version="0.32"
   inkscape:version="0.48.2 r9819"
   sodipodi:docname="pw3270-logo.svg"
   inkscape:output_extension="org.inkscape.output.svg.inkscape"
   inkscape:export-filename="/home/perry/Project/3270/v4/image/icon.png"
   inkscape:export-xdpi="90"
   inkscape:export-ydpi="90"
   version="1.1">
  <defs
     id="defs2687">
    <linearGradient
       id="linearGradient3687">
      <stop
         style="stop-color:#ffffff;stop-opacity:1;"
         offset="0"
         id="stop3689" />
      <stop
         style="stop-color:#000000;stop-opacity:1;"
         offset="1"
         id="stop3691" />
    </linearGradient>
    <radialGradient
       inkscape:collect="always"
       xlink:href="#linearGradient3687"
       id="radialGradient2560"
       gradientUnits="userSpaceOnUse"
       gradientTransform="matrix(-1.2214651,1.3481449,-1.1114864,-1.0070438,1777.1401,13.255979)"
       cx="593.03772"
       cy="437.90591"
       fx="593.03772"
       fy="437.90591"
       r="19.115074" />
    <inkscape:perspective
       sodipodi:type="inkscape:persp3d"
       inkscape:vp_x="0 : 32 : 1"
       inkscape:vp_y="0 : 1000 : 0"
       inkscape:vp_z="64 : 32 : 1"
       inkscape:persp3d-origin="32 : 21.333333 : 1"
       id="perspective2693" />
  </defs>
  <sodipodi:namedview
     id="base"
     pagecolor="#ffffff"
     bordercolor="#666666"
     borderopacity="1.0"
     inkscape:pageopacity="0.0"
     inkscape:pageshadow="2"
     inkscape:zoom="0.97227183"
     inkscape:cx="-308.24386"
     inkscape:cy="32"
     inkscape:current-layer="layer1"
     showgrid="true"
     inkscape:document-units="px"
     inkscape:grid-bbox="true"
     inkscape:window-width="1280"
     inkscape:window-height="966"
     inkscape:window-x="0"
     inkscape:window-y="26"
     inkscape:window-maximized="1" />
  <metadata
     id="metadata2690">
    <rdf:RDF>
      <cc:Work
         rdf:about="">
        <dc:format>image/svg+xml</dc:format>
        <dc:type
           rdf:resource="http://purl.org/dc/dcmitype/StillImage" />
      </cc:Work>
    </rdf:RDF>
  </metadata>
  <g
     id="layer1"
     inkscape:label="Layer 1"
     inkscape:groupmode="layer"
     transform="translate(0,90)">
    <g
       id="g3348"
       transform="matrix(3.0573113,0,0,3.0573113,-1546.2767,-1196.7198)"
       inkscape:export-filename="/home/perry/Desktop/g3484.png"
       inkscape:export-xdpi="750"
       inkscape:export-ydpi="750">
      <path
         inkscape:export-ydpi="750"
         inkscape:export-xdpi="750"
         inkscape:export-filename="/home/perry/Desktop/path4684.png"
         sodipodi:nodetypes="ccccc"
         id="path3877"
         d="m 571.75652,365.09989 c -12.28362,1.49404 -24.71615,1.60564 -36.92919,3.70417 1.15828,9.37275 0.97923,23.2044 1.63094,30.14689 11.55053,-1.50408 27.01785,-2.59907 38.36698,-5.35307 -0.036,-8.87303 -1.02762,-19.15 -3.06873,-28.49799 z"
         style="fill:#000000;fill-opacity:1;fill-rule:evenodd;stroke:#cccccc;stroke-width:2.20000005;stroke-linecap:round;stroke-linejoin:round;stroke-miterlimit:4;stroke-opacity:1;stroke-dasharray:none"
         inkscape:connector-curvature="0" />
      <path
         inkscape:export-ydpi="750"
         inkscape:export-xdpi="750"
         inkscape:export-filename="/home/perry/Desktop/path4684.png"
         sodipodi:nodetypes="cccccccccccccccc"
         id="path3879"
         d="m 558.70672,398.73456 c -3.79163,0.10309 -7.64598,0.11185 -11.30721,1.27926 -2.13143,0.66011 -4.04568,2.24121 -4.70985,4.42348 -0.0967,1.1177 0.76001,2.18842 1.46457,3.02352 2.25351,2.29719 5.65545,2.82771 8.73539,2.89271 4.42579,0.006 8.86831,-0.8458 12.96682,-2.52003 1.55025,-0.88162 3.33996,-2.06142 3.56963,-3.9936 -0.59735,-2.25901 -2.87075,-3.51224 -4.96561,-4.11636 -1.84964,-0.54894 -3.83129,-0.95601 -5.75374,-0.98898 z m 0.0446,1.40178 c 2.78739,0.0968 5.75567,0.21409 8.11548,1.83476 0.87991,0.58405 1.95351,1.77677 1.15706,2.83974 -0.76499,1.1501 -2.05182,1.80199 -3.22326,2.45978 -3.23561,1.57133 -6.96349,1.61384 -10.45172,1.06373 -9.12914,-0.40554 -4.60594,-6.64603 1.06647,-7.80087 1.09861,-0.25448 2.19774,-0.40573 3.33597,-0.39714 z"
         style="fill:#b6b6b6;fill-opacity:1;fill-rule:evenodd;stroke:none"
         inkscape:connector-curvature="0" />
      <g
         transform="matrix(0.8126522,0,0,1,135.51705,-68.411175)"
         id="g3881">
        <path
           style="fill:#000000;fill-opacity:1;fill-rule:evenodd;stroke:#00ff00;stroke-width:1;stroke-linecap:round;stroke-linejoin:round;stroke-miterlimit:50.90000153;stroke-opacity:1;stroke-dasharray:3, 3;stroke-dashoffset:0"
           d="m 496.23743,451.70467 c 37.88072,-3.53554 37.62819,-3.53554 37.62819,-3.53554"
           id="path3883"
           inkscape:connector-curvature="0" />
        <path
           style="font-size:9.27298832px;font-style:normal;font-weight:bold;fill:#00ff00;fill-opacity:1;stroke:#00ff00;stroke-width:1px;stroke-linecap:butt;stroke-linejoin:miter;stroke-opacity:0;font-family:Bitstream Vera Sans;-inkscape-font-specification:Sans Bold"
           d="m 496.41233,442.38795 2.69056,-0.26631 c 0.80001,-0.0792 1.40822,0.0667 1.82464,0.43776 0.41931,0.36749 0.61951,0.93195 0.60062,1.69338 -0.019,0.76469 -0.24833,1.37492 -0.68806,1.83067 -0.43685,0.45224 -1.05527,0.71795 -1.85529,0.79713 l -1.06948,0.10586 -0.0627,2.52833 -1.62108,0.16046 0.18082,-7.28728 m 1.58729,1.20133 -0.0505,2.03536 0.89685,-0.0888 c 0.31439,-0.0311 0.55938,-0.14299 0.73498,-0.33567 0.17566,-0.19591 0.26753,-0.45656 0.27561,-0.78196 0.008,-0.3254 -0.0713,-0.56748 -0.23819,-0.72626 -0.16688,-0.15875 -0.4075,-0.22257 -0.7219,-0.19147 l -0.89684,0.0888 m 4.19384,-1.77354 1.5537,-0.15378 0.95492,5.18832 1.20932,-5.40254 1.56212,-0.15461 0.9465,5.18915 1.21774,-5.40337 1.54107,-0.15253 -1.66294,7.43397 -1.8695,0.18504 -1.00361,-5.42695 -1.2659,5.65159 -1.86949,0.18504 -1.31393,-7.13933 m 13.19263,2.04406 c 0.4207,0.085 0.73663,0.27442 0.94775,0.56837 0.214,0.29044 0.31498,0.67808 0.30296,1.16291 -0.0179,0.72239 -0.27018,1.29593 -0.75673,1.72062 -0.48649,0.42144 -1.18728,0.67745 -2.10238,0.76803 -0.32281,0.0319 -0.64626,0.0331 -0.97034,0.004 -0.32136,-0.0266 -0.63914,-0.0844 -0.95336,-0.17343 l 0.036,-1.44965 c 0.29879,0.14571 0.59584,0.2494 0.89113,0.31106 0.29817,0.0581 0.59182,0.0729 0.88095,0.0443 0.42948,-0.0425 0.76005,-0.16124 0.99169,-0.35622 0.23446,-0.19524 0.35568,-0.45393 0.36368,-0.77608 0.008,-0.3319 -0.10345,-0.57079 -0.33503,-0.71665 -0.22872,-0.1494 -0.57184,-0.20145 -1.02939,-0.15618 l -0.64842,0.0642 0.03,-1.21047 0.68211,-0.0675 c 0.40702,-0.0403 0.712,-0.1435 0.91493,-0.30966 0.20302,-0.16941 0.30828,-0.40542 0.31579,-0.70805 0.007,-0.27983 -0.0845,-0.48663 -0.27442,-0.62041 -0.18989,-0.13376 -0.46168,-0.18313 -0.81537,-0.14814 -0.26105,0.0258 -0.52577,0.0861 -0.79413,0.18086 -0.26837,0.0947 -0.53613,0.22186 -0.80331,0.38138 l 0.0341,-1.37642 c 0.32259,-0.1358 0.64172,-0.2453 0.95741,-0.32848 0.31568,-0.0832 0.6251,-0.13977 0.92826,-0.16979 0.81685,-0.0808 1.42351,0.0149 1.81998,0.28729 0.39934,0.26884 0.59127,0.71565 0.57577,1.3404 -0.0106,0.42629 -0.1161,0.78567 -0.31657,1.07816 -0.20039,0.28927 -0.49143,0.50796 -0.87312,0.6561 m 4.39998,2.10611 2.76635,-0.27381 -0.0343,1.3813 -4.56848,0.45219 0.0343,-1.38131 2.35302,-2.57489 c 0.21024,-0.23504 0.36703,-0.45992 0.47036,-0.67465 0.10334,-0.21472 0.15774,-0.43272 0.16324,-0.65399 0.008,-0.34167 -0.0844,-0.60676 -0.27848,-0.7953 -0.19133,-0.1888 -0.45121,-0.26694 -0.77963,-0.23445 -0.25263,0.025 -0.5307,0.11584 -0.8342,0.27247 -0.30343,0.15338 -0.62944,0.37068 -0.97804,0.65186 l 0.0397,-1.60096 c 0.36838,-0.17603 0.73172,-0.31748 1.08999,-0.42437 0.35835,-0.11012 0.70876,-0.18212 1.05122,-0.21603 0.75228,-0.0745 1.33139,0.0597 1.73731,0.40259 0.40872,0.34257 0.60456,0.85715 0.58752,1.54373 -0.01,0.397 -0.10747,0.77671 -0.29287,1.13912 -0.18533,0.35918 -0.56865,0.8548 -1.14996,1.48687 l -1.37709,1.49963 m 4.23502,-6.31064 4.7369,-0.46886 -0.0263,1.05916 -2.60509,6.47067 -1.57897,0.15629 2.46658,-6.13561 -3.02741,0.29965 0.0343,-1.3813 m 9.29515,2.70736 c 0.0226,-0.91111 -0.0359,-1.54479 -0.17544,-1.90102 -0.13669,-0.35974 -0.37906,-0.5224 -0.72714,-0.48796 -0.34807,0.0345 -0.60114,0.24616 -0.75919,0.63508 -0.15799,0.38568 -0.24828,1.03408 -0.27088,1.94519 -0.0229,0.92088 0.0354,1.56268 0.17484,1.92541 0.1394,0.36274 0.38314,0.52689 0.73122,0.49243 0.34526,-0.0342 0.59696,-0.24736 0.75511,-0.63954 0.15814,-0.39219 0.24863,-1.04872 0.27148,-1.96959 m 1.62071,-0.14581 c -0.03,1.20722 -0.27765,2.16172 -0.74308,2.86347 -0.46537,0.6985 -1.11069,1.0886 -1.93596,1.17029 -0.82807,0.082 -1.45856,-0.18186 -1.89146,-0.79146 -0.43282,-0.61284 -0.63425,-1.52288 -0.6043,-2.73011 0.03,-1.21048 0.27773,-2.16496 0.74309,-2.86347 0.46544,-0.70176 1.1122,-1.09361 1.94028,-1.17559 0.82527,-0.0817 1.45431,0.18391 1.88714,0.79676 0.43289,0.6096 0.63432,1.51963 0.60429,2.73011"
           id="path3885"
           inkscape:connector-curvature="0" />
        <path
           style="fill:#000000;fill-opacity:1;fill-rule:evenodd;stroke:#00ff00;stroke-width:1;stroke-linecap:round;stroke-linejoin:round;stroke-miterlimit:50.90000153;stroke-opacity:1;stroke-dasharray:3, 3;stroke-dashoffset:0"
           d="m 498.4652,453.42295 c 37.88072,-3.53554 37.62819,-3.53554 37.62819,-3.53554"
           id="path3887"
           inkscape:connector-curvature="0" />
        <path
           style="fill:#000000;fill-opacity:1;fill-rule:evenodd;stroke:#00ff00;stroke-width:1;stroke-linecap:round;stroke-linejoin:round;stroke-miterlimit:50.90000153;stroke-opacity:1;stroke-dasharray:3, 3;stroke-dashoffset:0"
           d="m 496.77866,455.87356 c 37.88072,-3.53554 37.62819,-3.53554 37.62819,-3.53554"
           id="path3889"
           inkscape:connector-curvature="0" />
        <path
           style="fill:#000000;fill-opacity:1;fill-rule:evenodd;stroke:#00ff00;stroke-width:1;stroke-linecap:round;stroke-linejoin:round;stroke-miterlimit:50.90000153;stroke-opacity:1;stroke-dasharray:3, 3;stroke-dashoffset:0"
           d="m 499.54207,457.86404 c 37.88072,-3.53554 37.62819,-3.53554 37.62819,-3.53554"
           id="path3891"
           inkscape:connector-curvature="0" />
      </g>
      <path
         inkscape:export-ydpi="750"
         inkscape:export-xdpi="750"
         inkscape:export-filename="/home/perry/Desktop/path4684.png"
         sodipodi:nodetypes="ccccc"
         id="path3893"
         d="m 571.18683,366.21059 c -11.74072,1.38257 -23.62379,1.48585 -35.29705,3.42783 1.10709,8.67351 0.93595,21.47328 1.55887,27.89784 11.04002,-1.39187 25.82375,-2.40517 36.67128,-4.95371 -0.0344,-8.21108 -0.9822,-17.72136 -2.9331,-26.37196 z"
         style="opacity:0.43404254;fill:url(#radialGradient2560);fill-opacity:1;fill-rule:evenodd;stroke:#cccccc;stroke-width:0;stroke-linecap:round;stroke-linejoin:round;stroke-miterlimit:4;stroke-opacity:1;stroke-dasharray:none"
         inkscape:connector-curvature="0" />
    </g>
  </g>
</svg>
